<svg xmlns="http://www.w3.org/2000/svg" width="54.238" height="32.397"><path fill="#F2A68D" d="M52.582 28.027c-.234-.138-.469-.277-.7-.405a20.587 20.587 0 0 0-6.5-1.562 40.119 40.119 0 0 1-6.868-1.094c-3.351-1.346-7.2-.738-10.56-.778 3.97.649 8.057.885 12.106 1.534a31.786 31.786 0 0 1 11.8 3.907c-.772 1.541-1.7 2.77-2.769 2.768a66.6 66.6 0 0 0-7.647-1.339c0-.659.012-1.947.016-2.595-3.611.955-7.129.085-10.61-.605a46.542 46.542 0 0 0-2.617-.46c-.437-.061-.874-.113-1.313-.15s-.886-.077-1.331-.09a13.06 13.06 0 0 0-5.45.93c.246.357.07.884 0 1.3h-.052.052c-.065.369-.046.657.412.671-.458-.015-.476-.3-.412-.671 1.813-.1 3.593-.125 5.355-.08l2.617.091q1.3.058 2.589.162a100.371 100.371 0 0 1 10.457 1.461 94.734 94.734 0 0 0-8.247-.6c-1.369-.042-2.736-.06-4.1-.062l-2.052.009-2.081-.012-8.384.037c-1.412 0-2.816.025-4.254-.029s-2.888-.124-4.345-.215l-1.988-.123a7.948 7.948 0 0 0-5.7-2.976c.806-3.224-.459-9.853 3.247-8.313l.241-2.6c-3.529-3.494-3.833-12.68.03-15.064C5.681-.103 8.024.041 10.492.359c1.231.159 2.488.36 3.753.46a13.94 13.94 0 0 0 3.847-.26 42.337 42.337 0 0 1 5.512-.56 16.369 16.369 0 0 1 2.735.18c.456.07.906.168 1.365.282a12.407 12.407 0 0 1 1.382.418 37.169 37.169 0 0 0 7.873 1.807c1.337.219 2.67.462 4 .811a19.034 19.034 0 0 1 3.96 1.446c1.889.657 5.2-1.3 6.14.664.677.94.7 2.331.6 3.882-3.111-.236-6.214-.313-9.279-.6a75.76 75.76 0 0 1-11.156-2.96 30.559 30.559 0 0 0 11.156 2.96c3.057.6 6.118 1.149 9.18 1.854a18.062 18.062 0 0 0-.038 4.015h1.423c1.9 3.27 1.426 7.844.471 11.11-.255.665-.529 1.413-.834 2.159Z"></path></svg>