<svg width="506" height="215" viewBox="0 0 506 215" fill="none" xmlns="http://www.w3.org/2000/svg">
<path d="M158.094 170.761H135.636V210.193H81.2722V170.761H0V130.355L84.7641 6.50063H135.653V129.653H158.094V170.761ZM81.2722 129.653V105.977C81.2722 101.513 81.4263 95.508 81.7515 87.9297C82.0767 80.3684 82.3335 76.3825 82.5218 76.0232H80.9812C77.8146 83.1739 74.2371 89.8627 70.2488 96.0897L47.6713 129.653H81.2722Z" fill="#F2A68D"/>
<path d="M319.663 108.629C319.663 144.673 313.62 171.069 301.536 187.834C289.451 204.599 270.964 212.981 246.059 212.981C221.701 212.981 203.352 204.223 190.993 186.722C178.635 169.222 172.455 143.185 172.455 108.629C172.455 72.3966 178.498 45.8466 190.582 28.9278C202.667 12.0262 221.154 3.57535 246.059 3.57535C270.314 3.57535 288.646 12.3683 301.056 29.9714C313.449 47.5744 319.663 73.7993 319.663 108.629ZM227.23 108.629C227.23 131.672 228.668 147.496 231.561 156.135C234.436 164.774 239.281 169.085 246.059 169.085C252.94 169.085 257.784 164.62 260.626 155.707C263.467 146.795 264.871 131.09 264.871 108.612C264.871 86.0479 263.433 70.224 260.557 61.1744C257.682 52.1248 252.837 47.5915 246.059 47.5915C239.281 47.5915 234.436 51.9538 231.561 60.6954C228.668 69.42 227.23 85.3978 227.23 108.629Z" fill="#F2A68D"/>
<path d="M492.666 170.761H470.208V210.193H415.844V170.761H334.572V130.355L419.336 6.50063H470.225V129.653H492.666V170.761ZM415.844 129.653V105.977C415.844 101.513 415.998 95.508 416.34 87.9297C416.666 80.3684 416.922 76.3825 417.111 76.0232H415.57C412.403 83.1739 408.826 89.8627 404.838 96.0897L382.26 129.671H415.844V129.653Z" fill="#F2A68D"/>
<path d="M168.638 169.975H146.198V209.406H91.8335V169.975H10.5442V129.585L95.3083 5.73082H146.198V128.884H168.638V169.975ZM91.8335 128.884V105.191C91.8335 100.726 91.9875 94.7211 92.3128 87.1427C92.638 79.5815 92.8948 75.5956 93.083 75.2363H91.5425C88.3758 82.387 84.7983 89.0758 80.81 95.3028L58.2325 128.884H91.8335Z" stroke="black" stroke-width="3.2675" stroke-miterlimit="10"/>
<path d="M330.207 107.842C330.207 143.886 324.165 170.282 312.08 187.047C299.995 203.812 281.509 212.194 256.603 212.194C232.245 212.194 213.896 203.436 201.537 185.935C189.179 168.435 182.999 142.398 182.999 107.842C182.999 71.6267 189.042 45.0597 201.126 28.1409C213.211 11.2393 231.698 2.78843 256.603 2.78843C280.858 2.78843 299.191 11.5814 311.601 29.1844C324.01 46.8046 330.207 73.0124 330.207 107.842ZM237.774 107.842C237.774 130.885 239.212 146.709 242.105 155.348C244.981 163.987 249.825 168.298 256.603 168.298C263.484 168.298 268.328 163.833 271.17 154.92C274.011 146.008 275.415 130.304 275.415 107.825C275.415 85.261 273.977 69.4371 271.101 60.3875C268.226 51.3379 263.382 46.8046 256.603 46.8046C249.825 46.8046 244.981 51.1668 242.105 59.8914C239.229 68.6501 237.774 84.628 237.774 107.842Z" stroke="black" stroke-width="3.2675" stroke-miterlimit="10"/>
<path d="M503.21 169.975H480.769V209.406H426.405V169.975H345.133V129.585L429.897 5.73082H480.786V128.884H503.227V169.975H503.21ZM426.405 128.884V105.191C426.405 100.726 426.559 94.7211 426.902 87.1427C427.227 79.5815 427.484 75.5956 427.672 75.2363H426.131C422.965 82.387 419.387 89.0758 415.399 95.3028L392.821 128.884H426.405Z" stroke="black" stroke-width="3.2675" stroke-miterlimit="10"/>
</svg>
