<?xml version="1.0" encoding="UTF-8" standalone="no" ?>
<!DOCTYPE svg PUBLIC "-//W3C//DTD SVG 1.1//EN" "http://www.w3.org/Graphics/SVG/1.1/DTD/svg11.dtd">
<svg xmlns="http://www.w3.org/2000/svg" xmlns:xlink="http://www.w3.org/1999/xlink" version="1.1" width="1080" height="1080" viewBox="0 0 1080 1080" xml:space="preserve">
<desc>Created with Fabric.js 5.2.4</desc>
<defs>
</defs>
<rect x="0" y="0" width="100%" height="100%" fill="transparent"></rect>
<g transform="matrix(1 0 0 1 540 540)" id="55e98954-8cd6-4b26-ad0a-d64c42905d0c"  >
</g>
<g transform="matrix(1 0 0 1 540 540)" id="16260c69-37fb-409a-bed8-adf67046ebeb"  >
<rect style="stroke: none; stroke-width: 1; stroke-dasharray: none; stroke-linecap: butt; stroke-dashoffset: 0; stroke-linejoin: miter; stroke-miterlimit: 4; fill: rgb(255,255,255); fill-rule: nonzero; opacity: 1; visibility: hidden;" vector-effect="non-scaling-stroke"  x="-540" y="-540" rx="0" ry="0" width="1080" height="1080" />
</g>
<g transform="matrix(2.88 0 0 2.88 540.95 582.76)"  >
<path style="stroke: none; stroke-width: 1; stroke-dasharray: none; stroke-linecap: butt; stroke-dashoffset: 0; stroke-linejoin: miter; stroke-miterlimit: 4; fill: rgb(255,255,255); fill-rule: nonzero; opacity: 1;" vector-effect="non-scaling-stroke"  transform=" translate(-598.11, -341.21)" d="M 624.6 311.2 C 626.8000000000001 315.5 630.5 316.9 634.8000000000001 315 C 650.9000000000001 308.1 664.9000000000001 299.4 669.0000000000001 280.2 C 670.9000000000001 271 666.3000000000001 256 654.2000000000002 252.2 C 639.0000000000001 247.39999999999998 626.7000000000002 251.2 621.2000000000002 264 C 618.9000000000002 269.5 617.6000000000001 275.7 617.2000000000002 281.6 C 616.6000000000001 292.8 612.1000000000001 301 601.7000000000002 305.8 C 599.9000000000002 306.6 598.2000000000002 308 596.3000000000002 308.7 C 579.9000000000002 314.59999999999997 573.8000000000002 327.3 572.5000000000002 343.59999999999997 C 571.9000000000002 350.9 570.5000000000002 358.09999999999997 569.2000000000003 365.29999999999995 C 567.0000000000002 376.99999999999994 563.3000000000003 386.49999999999994 551.6000000000003 393.99999999999994 C 535.8000000000003 404.09999999999997 529.9000000000002 416.8999999999999 526.8000000000003 427.3999999999999 C 533.7000000000003 425.49999999999994 540.7000000000003 423.5999999999999 547.7000000000003 423.8999999999999 C 549.5000000000002 423.99999999999994 551.2000000000003 424.19999999999993 552.9000000000003 424.49999999999994 C 558.1000000000004 425.59999999999997 562.5000000000003 427.3999999999999 566.3000000000003 428.8999999999999 C 570.5000000000003 430.5999999999999 574.1000000000003 432.0999999999999 577.8000000000003 432.19999999999993 C 579.6000000000003 432.29999999999995 581.3000000000003 432.0999999999999 583.2000000000003 431.49999999999994 C 587.6000000000003 430.19999999999993 591.9000000000003 428.29999999999995 596.4000000000003 426.29999999999995 L 598.4000000000003 425.4 C 598.5000000000003 425.29999999999995 598.6000000000004 425.29999999999995 598.8000000000003 425.2 C 599.8000000000003 421.9 600.6000000000003 419.09999999999997 600.8000000000003 418.5 C 603.3000000000003 409.3 605.7000000000003 400 608.5000000000003 389 C 598.8000000000003 380.6 595.8000000000003 362.5 596.8000000000003 348.3 C 599.1000000000003 349.90000000000003 600.9000000000003 357.40000000000003 601.2000000000003 359.90000000000003 C 602.7000000000003 372.6 607.2000000000003 382.90000000000003 619.7000000000003 389.1 C 626.1000000000003 392.20000000000005 637.4000000000003 402.20000000000005 642.2000000000003 407.5 C 642.7000000000003 408 643.1000000000003 408.2 643.7000000000003 408.3 C 645.6000000000003 408.1 647.5000000000002 408.1 649.4000000000003 408.1 C 653.7000000000003 408.3 657.8000000000003 409.1 661.7000000000003 410.5 C 655.6000000000003 404.5 644.6000000000003 394.2 640.0000000000002 390.9 C 629.0000000000002 382.9 623.8000000000002 372.09999999999997 622.7000000000003 358.79999999999995 C 622.2000000000003 352.69999999999993 622.5000000000002 346.29999999999995 620.4000000000003 340.79999999999995 C 617.4000000000003 332.9 612.5000000000003 325.59999999999997 608.1000000000004 317.29999999999995 C 617.6000000000004 321.09999999999997 623.5000000000003 327.79999999999995 626.1000000000004 337.09999999999997 C 627.7000000000004 342.9 628.2000000000004 349.09999999999997 628.5000000000003 355.09999999999997 C 629.3000000000003 368.79999999999995 639.1000000000004 385.99999999999994 654.1000000000004 393.79999999999995 C 646.7000000000004 381.09999999999997 641.0000000000003 361.69999999999993 640.9000000000003 348.59999999999997 C 640.9000000000003 339.79999999999995 636.6000000000004 332.7 628.5000000000003 327.29999999999995 C 620.7000000000004 322.09999999999997 617.8000000000003 313.79999999999995 620.5000000000003 301.49999999999994 C 622.5 306.5 623.4 308.9 624.6 311.2 z" stroke-linecap="round" />
</g>
<g transform="matrix(2.88 0 0 2.88 512.34 871.48)"  >
<path style="stroke: rgb(255,255,255); stroke-width: 1; stroke-dasharray: none; stroke-linecap: butt; stroke-dashoffset: 0; stroke-linejoin: miter; stroke-miterlimit: 4; fill: rgb(255,255,255); fill-rule: nonzero; opacity: 1;" vector-effect="non-scaling-stroke"  transform=" translate(-588.06, -441.66)" d="M 708.3 418.8 C 696.5 421.3 684.6999999999999 424.1 674.3 426.5 C 672.9 423.3 670 420.3 665.6999999999999 417.8 C 654.8 411.6 642.8 411.90000000000003 631.4999999999999 416 C 620.7999999999998 419.8 610.7999999999998 425.3 600.3999999999999 430 C 595.1999999999998 432.3 589.9999999999999 434.8 584.5999999999999 436.3 C 572.5999999999999 439.7 565.3999999999999 432.2 551.9999999999999 429.3 C 537.2999999999998 426.2 521.3999999999999 437 504.1999999999999 436.1 C 491.1999999999999 435.40000000000003 460.9999999999999 435.70000000000005 432.39999999999986 452.40000000000003 C 432.39999999999986 452.40000000000003 499.4999999999999 442.20000000000005 515.2999999999998 449.70000000000005 C 518.8999999999999 451.40000000000003 450.29999999999984 452.90000000000003 433.59999999999985 461.00000000000006 C 474.09999999999985 463.40000000000003 483.6999999999999 465.70000000000005 516.7999999999998 468.1000000000001 C 596.5999999999998 474.00000000000006 589.5999999999998 457.2000000000001 597.1999999999998 452.30000000000007 C 607.8999999999999 445.4000000000001 612.0999999999998 444.30000000000007 624.0999999999998 440.70000000000005 C 614.9999999999998 445.90000000000003 609.4999999999998 449.1 601.9999999999998 454.00000000000006 C 595.1999999999998 458.40000000000003 598.3999999999997 467.90000000000003 606.4999999999998 468.90000000000003 C 610.0999999999998 469.40000000000003 635.1999999999998 470.1 657.0999999999998 470.3 C 663.8999999999997 470.3 670.3999999999997 470.3 675.8999999999997 470.2 C 677.0999999999998 470.2 679.5999999999998 468.3 686.5999999999998 469.4 C 701.2999999999998 471.7 694.7999999999998 464.2 681.7999999999998 462 C 678.7999999999998 461.5 675.6999999999998 461.1 672.6999999999998 460.7 C 658.9999999999998 459.2 645.1999999999998 459.09999999999997 634.7999999999998 457.09999999999997 C 636.9999999999999 456.09999999999997 626.7999999999998 455.7 682.1999999999998 438.09999999999997 C 675.0999999999998 444.9 675.7999999999998 451.9 684.1999999999998 457.09999999999997 C 685.9999999999998 458.2 708.5999999999998 470.29999999999995 728.0999999999998 464.2 C 755.8 455.7 745.1 410.2 708.3 418.8 z" stroke-linecap="round" />
</g>
<g transform="matrix(2.88 0 0 2.88 546.31 437.55)"  >
<path style="stroke: rgb(6,0,0); stroke-width: 0; stroke-dasharray: none; stroke-linecap: butt; stroke-dashoffset: 0; stroke-linejoin: miter; stroke-miterlimit: 4; fill: rgb(255,255,255); fill-rule: nonzero; opacity: 1;" vector-effect="non-scaling-stroke"  transform=" translate(-600.01, -290.85)" d="M 769.1 297.5 C 769.1 297.5 744.8000000000001 293.4 719.1 296 C 717 296.2 714.9 296.5 712.8000000000001 296.8 C 714.9000000000001 296.5 717.0000000000001 296.2 719.1 296 C 723.9 279.4 730.9 240.1 706.3000000000001 202.9 C 706.3000000000001 202.9 678.3000000000001 201.3 645.4000000000001 222.6 C 645.9000000000001 181.89999999999998 608.3000000000001 154.2 599.6000000000001 150.8 C 599.6000000000001 150.8 558.5000000000001 171.20000000000002 554.7000000000002 221.5 C 532.8000000000002 195.9 493.8000000000002 202.8 493.8000000000002 202.8 C 469.1000000000002 240 476.20000000000016 279.3 481.00000000000017 295.9 C 484.1000000000002 296.2 487.3000000000002 296.7 490.40000000000015 297.2 C 487.3000000000001 296.7 484.10000000000014 296.2 481.00000000000017 295.9 C 455.3000000000002 293.2 430.90000000000015 297.4 430.90000000000015 297.4 C 405.50000000000017 350 435.40000000000015 388.7 435.40000000000015 388.7 C 453.20000000000016 413.4 472.40000000000015 425.3 488.70000000000016 430.8 C 491.50000000000017 430.7 494.10000000000014 430.6 496.60000000000014 430.6 C 499.20000000000016 430.6 501.90000000000015 430.70000000000005 504.40000000000015 430.8 C 505.00000000000017 430.8 505.70000000000016 430.90000000000003 506.3000000000001 430.90000000000003 C 509.40000000000015 430.90000000000003 512.6000000000001 430.50000000000006 515.7000000000002 429.8 C 409.60000000000014 393.6 437.20000000000016 303 437.20000000000016 303 C 455.8000000000002 300.9 470.8000000000002 300.9 483.00000000000017 302.2 C 487.70000000000016 302.7 492.00000000000017 303.4 495.90000000000015 304.3 C 495.00000000000017 302.1 494.3000000000001 299.90000000000003 493.60000000000014 297.8 C 476.90000000000015 247.10000000000002 500.8000000000001 211.70000000000002 500.8000000000001 211.70000000000002 C 528.7000000000002 211.70000000000002 558.5000000000001 231.20000000000002 558.6000000000001 231.20000000000002 C 558.6000000000001 231.20000000000002 563.4000000000001 188.8 601.3000000000002 165.60000000000002 C 633.2000000000002 185.8 641.7000000000002 231.20000000000002 641.7000000000002 231.10000000000002 C 642.2000000000002 230.8 671.7000000000002 211.60000000000002 699.4000000000002 211.60000000000002 C 699.4000000000002 211.60000000000002 723.3000000000002 247.00000000000003 706.6000000000003 297.70000000000005 L 706.6000000000003 297.70000000000005 C 705.9000000000002 299.90000000000003 705.1000000000003 302.00000000000006 704.3000000000003 304.20000000000005 C 708.2000000000003 303.30000000000007 712.5000000000003 302.6 717.2000000000003 302.1 C 729.4000000000003 300.8 744.4000000000003 300.8 762.9000000000003 302.90000000000003 C 762.9000000000003 302.90000000000003 783.5000000000003 370.70000000000005 720.5000000000003 412.40000000000003 C 726.7000000000004 412.90000000000003 731.9000000000003 415.00000000000006 736.1000000000004 417.90000000000003 C 745.7000000000004 411.00000000000006 755.5000000000003 401.6 764.9000000000003 388.50000000000006 C 764.7 388.8 794.5 350.1 769.1 297.5 z" stroke-linecap="round" />
</g>
<g transform="matrix(0 0 0 0 0 0)"  >
<g style=""   >
</g>
</g>
<g transform="matrix(0 0 0 0 0 0)"  >
<g style=""   >
</g>
</g>
<g transform="matrix(2.88 0 0 2.88 522.34 881.48)"  >
<path style="stroke: rgb(255,255,255); stroke-width: 1; stroke-dasharray: none; stroke-linecap: butt; stroke-dashoffset: 0; stroke-linejoin: miter; stroke-miterlimit: 4; fill: rgb(255,255,255); fill-rule: nonzero; opacity: 1;" vector-effect="non-scaling-stroke"  transform=" translate(-588.06, -441.66)" d="M 708.3 418.8 C 696.5 421.3 684.6999999999999 424.1 674.3 426.5 C 672.9 423.3 670 420.3 665.6999999999999 417.8 C 654.8 411.6 642.8 411.90000000000003 631.4999999999999 416 C 620.7999999999998 419.8 610.7999999999998 425.3 600.3999999999999 430 C 595.1999999999998 432.3 589.9999999999999 434.8 584.5999999999999 436.3 C 572.5999999999999 439.7 565.3999999999999 432.2 551.9999999999999 429.3 C 537.2999999999998 426.2 521.3999999999999 437 504.1999999999999 436.1 C 491.1999999999999 435.40000000000003 460.9999999999999 435.70000000000005 432.39999999999986 452.40000000000003 C 432.39999999999986 452.40000000000003 499.4999999999999 442.20000000000005 515.2999999999998 449.70000000000005 C 518.8999999999999 451.40000000000003 450.29999999999984 452.90000000000003 433.59999999999985 461.00000000000006 C 474.09999999999985 463.40000000000003 483.6999999999999 465.70000000000005 516.7999999999998 468.1000000000001 C 596.5999999999998 474.00000000000006 589.5999999999998 457.2000000000001 597.1999999999998 452.30000000000007 C 607.8999999999999 445.4000000000001 612.0999999999998 444.30000000000007 624.0999999999998 440.70000000000005 C 614.9999999999998 445.90000000000003 609.4999999999998 449.1 601.9999999999998 454.00000000000006 C 595.1999999999998 458.40000000000003 598.3999999999997 467.90000000000003 606.4999999999998 468.90000000000003 C 610.0999999999998 469.40000000000003 635.1999999999998 470.1 657.0999999999998 470.3 C 663.8999999999997 470.3 670.3999999999997 470.3 675.8999999999997 470.2 C 677.0999999999998 470.2 679.5999999999998 468.3 686.5999999999998 469.4 C 701.2999999999998 471.7 694.7999999999998 464.2 681.7999999999998 462 C 678.7999999999998 461.5 675.6999999999998 461.1 672.6999999999998 460.7 C 658.9999999999998 459.2 645.1999999999998 459.09999999999997 634.7999999999998 457.09999999999997 C 636.9999999999999 456.09999999999997 626.7999999999998 455.7 682.1999999999998 438.09999999999997 C 675.0999999999998 444.9 675.7999999999998 451.9 684.1999999999998 457.09999999999997 C 685.9999999999998 458.2 708.5999999999998 470.29999999999995 728.0999999999998 464.2 C 755.8 455.7 745.1 410.2 708.3 418.8 z" stroke-linecap="round" />
</g>
<g transform="matrix(0 0 0 0 0 0)"  >
<g style=""   >
</g>
</g>
</svg>